<svg width="24" height="24" viewBox="0 0 24 24" fill="none" xmlns="http://www.w3.org/2000/svg">
<path fill-rule="evenodd" clip-rule="evenodd" d="M4.293 7.79301C4.48053 7.60553 4.73484 7.50022 5 7.50022C5.26516 7.50022 5.51947 7.60553 5.707 7.79301L12 14.086L18.293 7.79301C18.3852 7.69749 18.4956 7.62131 18.6176 7.5689C18.7396 7.51649 18.8708 7.48891 19.0036 7.48775C19.1364 7.4866 19.2681 7.5119 19.391 7.56218C19.5138 7.61246 19.6255 7.68672 19.7194 7.78061C19.8133 7.8745 19.8875 7.98615 19.9378 8.10905C19.9881 8.23195 20.0134 8.36363 20.0123 8.49641C20.0111 8.62919 19.9835 8.76041 19.9311 8.88241C19.8787 9.00441 19.8025 9.11476 19.707 9.207L13.414 15.5C13.0389 15.8749 12.5303 16.0856 12 16.0856C11.4697 16.0856 10.9611 15.8749 10.586 15.5L4.293 9.207C4.10553 9.01948 4.00021 8.76517 4.00021 8.5C4.00021 8.23484 4.10553 7.98053 4.293 7.79301Z" fill="black"/>
</svg>
