<svg width="24" height="24" viewBox="0 0 24 24" fill="none" xmlns="http://www.w3.org/2000/svg">
<path fill-rule="evenodd" clip-rule="evenodd" d="M7.793 19.707C7.60553 19.5195 7.50021 19.2652 7.50021 19C7.50021 18.7348 7.60553 18.4805 7.793 18.293L14.086 12L7.793 5.707C7.61084 5.51839 7.51005 5.26579 7.51233 5.00359C7.5146 4.7414 7.61977 4.49058 7.80518 4.30518C7.99059 4.11977 8.2414 4.0146 8.5036 4.01232C8.7658 4.01004 9.0184 4.11084 9.207 4.293L15.5 10.586C15.8749 10.9611 16.0856 11.4697 16.0856 12C16.0856 12.5303 15.8749 13.0389 15.5 13.414L9.207 19.707C9.01947 19.8945 8.76516 19.9998 8.5 19.9998C8.23484 19.9998 7.98053 19.8945 7.793 19.707Z" fill="black"/>
</svg>
