<svg width="24" height="24" viewBox="0 0 24 24" fill="none" xmlns="http://www.w3.org/2000/svg">
<path fill-rule="evenodd" clip-rule="evenodd" d="M19.707 16.207C19.5195 16.3945 19.2652 16.4998 19 16.4998C18.7348 16.4998 18.4805 16.3945 18.293 16.207L12 9.914L5.707 16.207C5.5184 16.3892 5.26579 16.49 5.0036 16.4877C4.7414 16.4854 4.49059 16.3802 4.30518 16.1948C4.11977 16.0094 4.0146 15.7586 4.01232 15.4964C4.01005 15.2342 4.11084 14.9816 4.293 14.793L10.586 8.5C10.9611 8.12506 11.4697 7.91443 12 7.91443C12.5303 7.91443 13.0389 8.12506 13.414 8.5L19.707 14.793C19.8945 14.9805 19.9998 15.2348 19.9998 15.5C19.9998 15.7652 19.8945 16.0195 19.707 16.207Z" fill="black"/>
</svg>
