<svg width="24" height="24" viewBox="0 0 24 24" fill="none" xmlns="http://www.w3.org/2000/svg">
<path fill-rule="evenodd" clip-rule="evenodd" d="M16.207 4.293C16.3945 4.48053 16.4998 4.73484 16.4998 5C16.4998 5.26516 16.3945 5.51947 16.207 5.707L9.914 12L16.207 18.293C16.3892 18.4816 16.49 18.7342 16.4877 18.9964C16.4854 19.2586 16.3802 19.5094 16.1948 19.6948C16.0094 19.8802 15.7586 19.9854 15.4964 19.9877C15.2342 19.99 14.9816 19.8892 14.793 19.707L8.5 13.414C8.12506 13.0389 7.91443 12.5303 7.91443 12C7.91443 11.4697 8.12506 10.9611 8.5 10.586L14.793 4.293C14.9805 4.10553 15.2348 4.00021 15.5 4.00021C15.7652 4.00021 16.0195 4.10553 16.207 4.293Z" fill="black"/>
</svg>
