<svg width="24" height="24" viewBox="0 0 24 24" fill="none" xmlns="http://www.w3.org/2000/svg">
<path d="M10.0001 20C9.99996 20.1859 10.0517 20.368 10.1493 20.5261C10.247 20.6842 10.3868 20.812 10.5531 20.895L12.5531 21.895C12.7055 21.9712 12.875 22.0072 13.0453 21.9995C13.2156 21.9918 13.3811 21.9406 13.5261 21.851C13.6711 21.7613 13.7907 21.636 13.8737 21.4871C13.9566 21.3382 14.0001 21.1705 14.0001 21V14C14.0003 13.5044 14.1845 13.0265 14.5171 12.659L21.7401 4.67003C21.8695 4.52659 21.9546 4.34871 21.9851 4.15791C22.0157 3.96711 21.9902 3.77156 21.912 3.59491C21.8337 3.41825 21.7059 3.26805 21.5441 3.16248C21.3822 3.05691 21.1933 3.00049 21.0001 3.00003H3.00005C2.80666 3.0001 2.61743 3.05625 2.4553 3.16167C2.29317 3.26709 2.16508 3.41726 2.08656 3.59399C2.00803 3.77073 1.98244 3.96644 2.01288 4.15742C2.04331 4.3484 2.12848 4.52646 2.25805 4.67003L9.48305 12.659C9.81559 13.0265 9.99983 13.5044 10.0001 14V20Z" stroke="black" stroke-width="2.0253" stroke-linecap="round" stroke-linejoin="round"/>
</svg>
