<svg width="24" height="24" viewBox="0 0 24 24" fill="none" xmlns="http://www.w3.org/2000/svg">
<path d="M11.5619 3.26602C11.6051 3.18762 11.6685 3.12225 11.7456 3.07672C11.8226 3.03119 11.9104 3.00717 11.9999 3.00717C12.0894 3.00717 12.1773 3.03119 12.2543 3.07672C12.3314 3.12225 12.3948 3.18762 12.4379 3.26602L15.3899 8.87002C15.4603 8.99978 15.5586 9.11235 15.6776 9.19964C15.7967 9.28692 15.9336 9.34677 16.0785 9.37488C16.2235 9.40298 16.3728 9.39865 16.5159 9.36219C16.6589 9.32574 16.7921 9.25806 16.9059 9.16402L21.1829 5.50002C21.265 5.43324 21.3662 5.39423 21.4719 5.38862C21.5776 5.383 21.6823 5.41106 21.771 5.46876C21.8598 5.52646 21.9279 5.61083 21.9656 5.70971C22.0033 5.80859 22.0087 5.91689 21.9809 6.01902L19.1469 16.265C19.0891 16.4747 18.9645 16.6598 18.7919 16.7922C18.6194 16.9247 18.4084 16.9973 18.1909 16.999H5.80994C5.59227 16.9975 5.38105 16.925 5.20833 16.7925C5.03561 16.6601 4.91083 16.4748 4.85294 16.265L2.01994 6.02002C1.99219 5.91789 1.99756 5.80959 2.03528 5.71071C2.073 5.61183 2.14112 5.52746 2.22984 5.46976C2.31856 5.41206 2.4233 5.384 2.52898 5.38962C2.63466 5.39523 2.73583 5.43424 2.81794 5.50102L7.09394 9.16502C7.20774 9.25906 7.34095 9.32674 7.484 9.36319C7.62706 9.39965 7.77641 9.40398 7.92134 9.37588C8.06627 9.34777 8.20317 9.28792 8.32223 9.20063C8.44129 9.11335 8.53954 9.00078 8.60994 8.87102L11.5619 3.26602Z" stroke="black" stroke-width="2.0253" stroke-linecap="round" stroke-linejoin="round"/>
<path d="M4.99999 21H19" stroke="black" stroke-width="2.0253" stroke-linecap="round" stroke-linejoin="round"/>
</svg>
