<svg width="24" height="24" viewBox="0 0 24 24" fill="none" xmlns="http://www.w3.org/2000/svg">
<path d="M9.99991 10.9999V16.9999" stroke="black" stroke-width="2.0253" stroke-linecap="round" stroke-linejoin="round"/>
<path d="M14 10.9999V16.9999" stroke="black" stroke-width="2.0253" stroke-linecap="round" stroke-linejoin="round"/>
<path d="M19 6.00003V20C19 20.5305 18.7893 21.0392 18.4142 21.4142C18.0391 21.7893 17.5304 22 17 22H7C6.46957 22 5.96086 21.7893 5.58579 21.4142C5.21071 21.0392 5 20.5305 5 20V6.00003" stroke="black" stroke-width="2.0253" stroke-linecap="round" stroke-linejoin="round"/>
<path d="M2.99991 6.00003H20.9999" stroke="black" stroke-width="2.0253" stroke-linecap="round" stroke-linejoin="round"/>
<path d="M8.00007 5.99997V3.99997C8.00007 3.46954 8.21078 2.96083 8.58585 2.58576C8.96093 2.21068 9.46963 1.99997 10.0001 1.99997H14.0001C14.5305 1.99997 15.0392 2.21068 15.4143 2.58576C15.7894 2.96083 16.0001 3.46954 16.0001 3.99997V5.99997" stroke="black" stroke-width="2.0253" stroke-linecap="round" stroke-linejoin="round"/>
</svg>
