<svg width="24" height="24" viewBox="0 0 24 24" fill="none" xmlns="http://www.w3.org/2000/svg">
<path d="M3.741 20.8276C3.741 16.9616 6.87501 13.8276 10.741 13.8276C12.2282 13.8276 13.1996 14.128 14.3334 14.9189M14.741 6.82764C14.741 9.03678 12.9501 10.8276 10.741 10.8276C8.53186 10.8276 6.741 9.03678 6.741 6.82764C6.741 4.6185 8.53186 2.82764 10.741 2.82764C12.9501 2.82764 14.741 4.6185 14.741 6.82764Z" stroke="black" stroke-width="2" stroke-linecap="round" stroke-linejoin="round"/>
<path d="M18.7717 16.069L19.3877 17.3009C19.4717 17.4724 19.6957 17.6369 19.8847 17.6684L21.0012 17.8539C21.7152 17.9729 21.8832 18.4909 21.3687 19.0019L20.5007 19.8699C20.3537 20.0169 20.2732 20.3004 20.3187 20.5034L20.5672 21.5779C20.7632 22.4283 20.3117 22.7573 19.5592 22.3128L18.5127 21.6934C18.3237 21.5814 18.0122 21.5814 17.8197 21.6934L16.7732 22.3128C16.0243 22.7573 15.5693 22.4248 15.7653 21.5779L16.0138 20.5034C16.0593 20.3004 15.9788 20.0169 15.8318 19.8699L14.9638 19.0019C14.4528 18.4909 14.6173 17.9729 15.3313 17.8539L16.4478 17.6684C16.6333 17.6369 16.8572 17.4724 16.9412 17.3009L17.5572 16.069C17.8932 15.4005 18.4392 15.4005 18.7717 16.069Z" stroke="black" stroke-width="1.5" stroke-linecap="round" stroke-linejoin="round"/>
</svg>
