<svg width="91" height="97" viewBox="0 0 91 97" fill="none" xmlns="http://www.w3.org/2000/svg">
<path d="M43.5567 13.0487C43.7316 12.7311 43.9885 12.4662 44.3007 12.2818C44.6128 12.0973 44.9687 12 45.3313 12C45.6939 12 46.0498 12.0973 46.362 12.2818C46.6741 12.4662 46.931 12.7311 47.1059 13.0487L59.0661 35.7537C59.3513 36.2794 59.7494 36.7355 60.2318 37.0891C60.7141 37.4428 61.2688 37.6852 61.856 37.7991C62.4432 37.913 63.0483 37.8954 63.6279 37.7477C64.2075 37.6 64.7472 37.3258 65.2083 36.9448L82.5368 22.0999C82.8694 21.8293 83.2793 21.6713 83.7075 21.6486C84.1357 21.6258 84.56 21.7395 84.9195 21.9733C85.2789 22.2071 85.5549 22.5489 85.7078 22.9495C85.8606 23.3501 85.8823 23.7889 85.7699 24.2027L74.2878 65.7149C74.0534 66.5644 73.5485 67.3143 72.8495 67.851C72.1506 68.3876 71.2957 68.6817 70.4145 68.6888H20.2522C19.3703 68.6826 18.5145 68.3889 17.8147 67.8522C17.1149 67.3155 16.6094 66.5651 16.3748 65.7149L4.89676 24.2067C4.78433 23.7929 4.80609 23.3542 4.95892 22.9535C5.11174 22.5529 5.38774 22.2111 5.74719 21.9773C6.10663 21.7436 6.53099 21.6299 6.95917 21.6526C7.38734 21.6754 7.79726 21.8334 8.12991 22.104L25.4544 36.9489C25.9154 37.3299 26.4551 37.6041 27.0347 37.7518C27.6143 37.8995 28.2194 37.917 28.8066 37.8032C29.3938 37.6893 29.9485 37.4468 30.4309 37.0932C30.9132 36.7395 31.3113 36.2834 31.5965 35.7577L43.5567 13.0487Z" stroke="black" stroke-width="8.10312" stroke-linecap="round" stroke-linejoin="round"/>
<path d="M16.9724 84.6888H73.6942" stroke="black" stroke-width="8.10312" stroke-linecap="round" stroke-linejoin="round"/>
</svg>
