<svg width="43" height="43" viewBox="0 0 43 43" fill="none" xmlns="http://www.w3.org/2000/svg">
<path d="M7.09049 24.8159C6.75506 24.8171 6.42619 24.723 6.14209 24.5447C5.85798 24.3664 5.63031 24.1111 5.48552 23.8085C5.34073 23.506 5.28477 23.1685 5.32413 22.8354C5.36349 22.5023 5.49657 22.1872 5.70789 21.9267L23.2562 3.8466C23.3878 3.69466 23.5672 3.59198 23.7649 3.55543C23.9626 3.51887 24.1668 3.55061 24.3441 3.64542C24.5213 3.74024 24.6611 3.8925 24.7404 4.07722C24.8197 4.26194 24.8339 4.46814 24.7806 4.66198L21.3773 15.3328C21.2769 15.6014 21.2432 15.8903 21.2791 16.1747C21.3149 16.4592 21.4192 16.7307 21.5831 16.966C21.7469 17.2013 21.9654 17.3934 22.2197 17.5257C22.4741 17.658 22.7568 17.7267 23.0435 17.7257H35.4514C35.7868 17.7246 36.1157 17.8186 36.3998 17.997C36.6839 18.1753 36.9116 18.4306 37.0564 18.7331C37.2011 19.0357 37.2571 19.3732 37.2177 19.7063C37.1784 20.0394 37.0453 20.3545 36.834 20.615L19.2857 38.6951C19.154 38.847 18.9747 38.9497 18.777 38.9862C18.5793 39.0228 18.3751 38.9911 18.1978 38.8962C18.0205 38.8014 17.8808 38.6492 17.8015 38.4644C17.7221 38.2797 17.708 38.0735 17.7613 37.8797L21.1646 27.2089C21.2649 26.9403 21.2986 26.6514 21.2628 26.3669C21.227 26.0825 21.1226 25.8109 20.9588 25.5756C20.795 25.3403 20.5765 25.1483 20.3221 25.016C20.0678 24.8836 19.7851 24.815 19.4984 24.8159H7.09049Z" stroke="black" stroke-width="3.54511" stroke-linecap="round" stroke-linejoin="round"/>
</svg>
