<svg width="37" height="37" viewBox="0 0 37 37" fill="none" xmlns="http://www.w3.org/2000/svg">
<path d="M17.5624 4.96087C17.628 4.84179 17.7243 4.74249 17.8413 4.67333C17.9583 4.60417 18.0918 4.56769 18.2277 4.56769C18.3636 4.56769 18.4971 4.60417 18.6141 4.67333C18.7311 4.74249 18.8275 4.84179 18.893 4.96087L23.377 13.4732C23.484 13.6703 23.6332 13.8413 23.8141 13.9739C23.9949 14.1065 24.2029 14.1974 24.423 14.2401C24.6432 14.2828 24.87 14.2762 25.0873 14.2208C25.3046 14.1654 25.507 14.0626 25.6798 13.9198L32.1765 8.35426C32.3012 8.25283 32.4549 8.19358 32.6154 8.18505C32.7759 8.17652 32.935 8.21914 33.0698 8.30679C33.2046 8.39443 33.308 8.52258 33.3653 8.67278C33.4226 8.82298 33.4308 8.98748 33.3886 9.14261L29.0838 24.7061C28.996 25.0245 28.8067 25.3057 28.5446 25.5069C28.2826 25.7081 27.9621 25.8183 27.6317 25.821H8.82525C8.49462 25.8187 8.17377 25.7085 7.91142 25.5073C7.64906 25.3061 7.45953 25.0248 7.37158 24.7061L3.06832 9.14413C3.02617 8.989 3.03433 8.82449 3.09162 8.6743C3.14892 8.5241 3.2524 8.39595 3.38716 8.30831C3.52192 8.22066 3.68101 8.17804 3.84154 8.18657C4.00207 8.1951 4.15575 8.25435 4.28047 8.35578L10.7756 13.9213C10.9485 14.0642 11.1508 14.167 11.3681 14.2223C11.5854 14.2777 11.8123 14.2843 12.0324 14.2416C12.2526 14.1989 12.4605 14.108 12.6414 13.9754C12.8222 13.8428 12.9714 13.6718 13.0784 13.4747L17.5624 4.96087Z" stroke="black" stroke-width="3.03795" stroke-linecap="round" stroke-linejoin="round"/>
<path d="M7.59488 31.8984H28.8606" stroke="black" stroke-width="3.03795" stroke-linecap="round" stroke-linejoin="round"/>
</svg>
