<svg width="43" height="43" viewBox="0 0 43 43" fill="none" xmlns="http://www.w3.org/2000/svg">
<path d="M19.528 4.988C19.604 4.58138 19.8197 4.21413 20.1379 3.94985C20.4562 3.68556 20.8568 3.54089 21.2704 3.54089C21.6841 3.54089 22.0847 3.68556 22.4029 3.94985C22.7211 4.21413 22.9369 4.58138 23.0129 4.988L24.8758 14.8399C25.0081 15.5403 25.3485 16.1846 25.8525 16.6886C26.3566 17.1926 27.0008 17.533 27.7013 17.6653L37.5531 19.5283C37.9598 19.6042 38.327 19.82 38.5913 20.1382C38.8556 20.4564 39.0002 20.8571 39.0002 21.2707C39.0002 21.6844 38.8556 22.085 38.5913 22.4032C38.327 22.7214 37.9598 22.9372 37.5531 23.0131L27.7013 24.8761C27.0008 25.0084 26.3566 25.3488 25.8525 25.8528C25.3485 26.3568 25.0081 27.0011 24.8758 27.7015L23.0129 37.5534C22.9369 37.96 22.7211 38.3273 22.4029 38.5916C22.0847 38.8558 21.6841 39.0005 21.2704 39.0005C20.8568 39.0005 20.4562 38.8558 20.1379 38.5916C19.8197 38.3273 19.604 37.96 19.528 37.5534L17.6651 27.7015C17.5327 27.0011 17.1924 26.3568 16.6883 25.8528C16.1843 25.3488 15.54 25.0084 14.8396 24.8761L4.98773 23.0131C4.58111 22.9372 4.21386 22.7214 3.94957 22.4032C3.68529 22.085 3.54062 21.6844 3.54062 21.2707C3.54062 20.8571 3.68529 20.4564 3.94957 20.1382C4.21386 19.82 4.58111 19.6042 4.98773 19.5283L14.8396 17.6653C15.54 17.533 16.1843 17.1926 16.6883 16.6886C17.1924 16.1846 17.5327 15.5403 17.6651 14.8399L19.528 4.988Z" stroke="black" stroke-width="3.54511" stroke-linecap="round" stroke-linejoin="round"/>
<path d="M35.451 3.54529V10.6355" stroke="black" stroke-width="3.54511" stroke-linecap="round" stroke-linejoin="round"/>
<path d="M38.9962 7.09009H31.9059" stroke="black" stroke-width="3.54511" stroke-linecap="round" stroke-linejoin="round"/>
<path d="M7.08988 38.9964C9.04779 38.9964 10.635 37.4092 10.635 35.4513C10.635 33.4934 9.04779 31.9062 7.08988 31.9062C5.13197 31.9062 3.54477 33.4934 3.54477 35.4513C3.54477 37.4092 5.13197 38.9964 7.08988 38.9964Z" stroke="black" stroke-width="3.54511" stroke-linecap="round" stroke-linejoin="round"/>
</svg>
